<svg width="69" height="69" viewBox="0 0 69 69" fill="none" xmlns="http://www.w3.org/2000/svg">
<g clip-path="url(#clip0_22_527)">
<g filter="url(#filter0_d_22_527)">
<path d="M66.125 11.5H10.5417C8.95383 11.5 7.66667 12.7872 7.66667 14.375V15.3333H2.875C1.28716 15.3333 0 16.6205 0 18.2083V50.7917C0 54.4966 3.00342 57.5 6.70833 57.5H63.25C66.4257 57.5 69 54.9257 69 51.75V14.375C69 12.7872 67.7128 11.5 66.125 11.5ZM6.70833 51.75C6.45417 51.75 6.21041 51.649 6.03069 51.4693C5.85097 51.2896 5.75 51.0458 5.75 50.7917V21.0833H7.66667V50.7917C7.66667 51.0458 7.5657 51.2896 7.38598 51.4693C7.20625 51.649 6.9625 51.75 6.70833 51.75ZM34.9792 49.8333H16.7708C15.977 49.8333 15.3333 49.1897 15.3333 48.3958V47.4375C15.3333 46.6436 15.977 46 16.7708 46H34.9792C35.773 46 36.4167 46.6436 36.4167 47.4375V48.3958C36.4167 49.1897 35.773 49.8333 34.9792 49.8333ZM59.8958 49.8333H41.6875C40.8936 49.8333 40.25 49.1897 40.25 48.3958V47.4375C40.25 46.6436 40.8936 46 41.6875 46H59.8958C60.6897 46 61.3333 46.6436 61.3333 47.4375V48.3958C61.3333 49.1897 60.6897 49.8333 59.8958 49.8333ZM34.9792 38.3333H16.7708C15.977 38.3333 15.3333 37.6897 15.3333 36.8958V35.9375C15.3333 35.1436 15.977 34.5 16.7708 34.5H34.9792C35.773 34.5 36.4167 35.1436 36.4167 35.9375V36.8958C36.4167 37.6897 35.773 38.3333 34.9792 38.3333ZM59.8958 38.3333H41.6875C40.8936 38.3333 40.25 37.6897 40.25 36.8958V35.9375C40.25 35.1436 40.8936 34.5 41.6875 34.5H59.8958C60.6897 34.5 61.3333 35.1436 61.3333 35.9375V36.8958C61.3333 37.6897 60.6897 38.3333 59.8958 38.3333ZM59.8958 26.8333H16.7708C15.977 26.8333 15.3333 26.1897 15.3333 25.3958V20.6042C15.3333 19.8103 15.977 19.1667 16.7708 19.1667H59.8958C60.6897 19.1667 61.3333 19.8103 61.3333 20.6042V25.3958C61.3333 26.1897 60.6897 26.8333 59.8958 26.8333Z" fill="#022B48"/>
</g>
</g>
<defs>
<filter id="filter0_d_22_527" x="-4" y="11.5" width="77" height="54" filterUnits="userSpaceOnUse" color-interpolation-filters="sRGB">
<feFlood flood-opacity="0" result="BackgroundImageFix"/>
<feColorMatrix in="SourceAlpha" type="matrix" values="0 0 0 0 0 0 0 0 0 0 0 0 0 0 0 0 0 0 127 0" result="hardAlpha"/>
<feOffset dy="4"/>
<feGaussianBlur stdDeviation="2"/>
<feComposite in2="hardAlpha" operator="out"/>
<feColorMatrix type="matrix" values="0 0 0 0 0 0 0 0 0 0 0 0 0 0 0 0 0 0 0.25 0"/>
<feBlend mode="normal" in2="BackgroundImageFix" result="effect1_dropShadow_22_527"/>
<feBlend mode="normal" in="SourceGraphic" in2="effect1_dropShadow_22_527" result="shape"/>
</filter>
<clipPath id="clip0_22_527">
<rect width="69" height="69" fill="white"/>
</clipPath>
</defs>
</svg>
